<mxfile host="Electron" agent="Mozilla/5.0 (X11; Linux x86_64) AppleWebKit/537.36 (KHTML, like Gecko) draw.io/24.7.17 Chrome/128.0.6613.36 Electron/32.0.1 Safari/537.36" version="24.7.17">
  <diagram name="Página-1" id="dz7gId-4mbQ0KYtOwZQd">
    <mxGraphModel dx="1114" dy="663" grid="1" gridSize="10" guides="1" tooltips="1" connect="1" arrows="1" fold="1" page="1" pageScale="1" pageWidth="827" pageHeight="1169" math="0" shadow="0">
      <root>
        <mxCell id="0" />
        <mxCell id="1" parent="0" />
        <mxCell id="DrUwkYx7hOjL73dzt_0N-1" value="" style="whiteSpace=wrap;html=1;aspect=fixed;fillColor=#A9C4EB;" vertex="1" parent="1">
          <mxGeometry x="140" y="170" width="40" height="40" as="geometry" />
        </mxCell>
        <mxCell id="DrUwkYx7hOjL73dzt_0N-2" value="" style="whiteSpace=wrap;html=1;aspect=fixed;fillColor=#003300;" vertex="1" parent="1">
          <mxGeometry x="180" y="170" width="40" height="40" as="geometry" />
        </mxCell>
        <mxCell id="DrUwkYx7hOjL73dzt_0N-3" value="" style="whiteSpace=wrap;html=1;aspect=fixed;fillColor=#003300;" vertex="1" parent="1">
          <mxGeometry x="220" y="170" width="40" height="40" as="geometry" />
        </mxCell>
        <mxCell id="DrUwkYx7hOjL73dzt_0N-4" value="" style="whiteSpace=wrap;html=1;aspect=fixed;fillColor=#003300;" vertex="1" parent="1">
          <mxGeometry x="260" y="170" width="40" height="40" as="geometry" />
        </mxCell>
        <mxCell id="DrUwkYx7hOjL73dzt_0N-6" value="&lt;font color=&quot;#ff0000&quot;&gt;it&#39;s&lt;/font&gt;" style="text;html=1;align=center;verticalAlign=middle;whiteSpace=wrap;rounded=0;" vertex="1" parent="1">
          <mxGeometry x="130" y="140" width="60" height="30" as="geometry" />
        </mxCell>
        <mxCell id="DrUwkYx7hOjL73dzt_0N-7" value="&lt;font color=&quot;#cc6600&quot;&gt;c&#39;est&lt;/font&gt;" style="text;html=1;align=center;verticalAlign=middle;whiteSpace=wrap;rounded=0;" vertex="1" parent="1">
          <mxGeometry x="70" y="180" width="60" height="30" as="geometry" />
        </mxCell>
        <mxCell id="DrUwkYx7hOjL73dzt_0N-8" value="&lt;font color=&quot;#ff0000&quot;&gt;tea&lt;/font&gt;" style="text;html=1;align=center;verticalAlign=middle;whiteSpace=wrap;rounded=0;" vertex="1" parent="1">
          <mxGeometry x="250" y="140" width="60" height="30" as="geometry" />
        </mxCell>
        <mxCell id="DrUwkYx7hOjL73dzt_0N-9" value="&lt;font color=&quot;#ff0000&quot;&gt;for&lt;/font&gt;" style="text;html=1;align=center;verticalAlign=middle;whiteSpace=wrap;rounded=0;" vertex="1" parent="1">
          <mxGeometry x="210" y="140" width="60" height="30" as="geometry" />
        </mxCell>
        <mxCell id="DrUwkYx7hOjL73dzt_0N-10" value="&lt;font color=&quot;#ff0000&quot;&gt;time&lt;/font&gt;" style="text;html=1;align=center;verticalAlign=middle;whiteSpace=wrap;rounded=0;" vertex="1" parent="1">
          <mxGeometry x="170" y="140" width="60" height="30" as="geometry" />
        </mxCell>
        <mxCell id="DrUwkYx7hOjL73dzt_0N-11" value="" style="whiteSpace=wrap;html=1;aspect=fixed;fillColor=#003300;" vertex="1" parent="1">
          <mxGeometry x="140" y="210" width="40" height="40" as="geometry" />
        </mxCell>
        <mxCell id="DrUwkYx7hOjL73dzt_0N-12" value="" style="whiteSpace=wrap;html=1;aspect=fixed;fillColor=#A9C4EB;" vertex="1" parent="1">
          <mxGeometry x="180" y="210" width="40" height="40" as="geometry" />
        </mxCell>
        <mxCell id="DrUwkYx7hOjL73dzt_0N-13" value="" style="whiteSpace=wrap;html=1;aspect=fixed;fillColor=#003300;" vertex="1" parent="1">
          <mxGeometry x="220" y="210" width="40" height="40" as="geometry" />
        </mxCell>
        <mxCell id="DrUwkYx7hOjL73dzt_0N-14" value="" style="whiteSpace=wrap;html=1;aspect=fixed;fillColor=#003300;" vertex="1" parent="1">
          <mxGeometry x="260" y="210" width="40" height="40" as="geometry" />
        </mxCell>
        <mxCell id="DrUwkYx7hOjL73dzt_0N-20" value="" style="whiteSpace=wrap;html=1;aspect=fixed;fillColor=#003300;" vertex="1" parent="1">
          <mxGeometry x="140" y="250" width="40" height="40" as="geometry" />
        </mxCell>
        <mxCell id="DrUwkYx7hOjL73dzt_0N-21" value="" style="whiteSpace=wrap;html=1;aspect=fixed;fillColor=#003300;" vertex="1" parent="1">
          <mxGeometry x="180" y="250" width="40" height="40" as="geometry" />
        </mxCell>
        <mxCell id="DrUwkYx7hOjL73dzt_0N-22" value="" style="whiteSpace=wrap;html=1;aspect=fixed;fillColor=#A9C4EB;" vertex="1" parent="1">
          <mxGeometry x="220" y="250" width="40" height="40" as="geometry" />
        </mxCell>
        <mxCell id="DrUwkYx7hOjL73dzt_0N-23" value="" style="whiteSpace=wrap;html=1;aspect=fixed;fillColor=#003300;" vertex="1" parent="1">
          <mxGeometry x="260" y="250" width="40" height="40" as="geometry" />
        </mxCell>
        <mxCell id="DrUwkYx7hOjL73dzt_0N-24" value="" style="whiteSpace=wrap;html=1;aspect=fixed;fillColor=#003300;" vertex="1" parent="1">
          <mxGeometry x="140" y="290" width="40" height="40" as="geometry" />
        </mxCell>
        <mxCell id="DrUwkYx7hOjL73dzt_0N-25" value="" style="whiteSpace=wrap;html=1;aspect=fixed;fillColor=#003300;" vertex="1" parent="1">
          <mxGeometry x="180" y="290" width="40" height="40" as="geometry" />
        </mxCell>
        <mxCell id="DrUwkYx7hOjL73dzt_0N-26" value="" style="whiteSpace=wrap;html=1;aspect=fixed;fillColor=#003300;" vertex="1" parent="1">
          <mxGeometry x="220" y="290" width="40" height="40" as="geometry" />
        </mxCell>
        <mxCell id="DrUwkYx7hOjL73dzt_0N-27" value="" style="whiteSpace=wrap;html=1;aspect=fixed;fillColor=#A9C4EB;" vertex="1" parent="1">
          <mxGeometry x="260" y="290" width="40" height="40" as="geometry" />
        </mxCell>
        <mxCell id="DrUwkYx7hOjL73dzt_0N-28" value="&lt;font color=&quot;#cc6600&quot;&gt;l&#39;heure&lt;/font&gt;" style="text;html=1;align=center;verticalAlign=middle;whiteSpace=wrap;rounded=0;" vertex="1" parent="1">
          <mxGeometry x="70" y="215" width="60" height="30" as="geometry" />
        </mxCell>
        <mxCell id="DrUwkYx7hOjL73dzt_0N-29" value="&lt;font color=&quot;#cc6600&quot;&gt;du&lt;/font&gt;" style="text;html=1;align=center;verticalAlign=middle;whiteSpace=wrap;rounded=0;" vertex="1" parent="1">
          <mxGeometry x="70" y="255" width="60" height="30" as="geometry" />
        </mxCell>
        <mxCell id="DrUwkYx7hOjL73dzt_0N-30" value="&lt;font color=&quot;#cc6600&quot;&gt;thé&lt;/font&gt;" style="text;html=1;align=center;verticalAlign=middle;whiteSpace=wrap;rounded=0;" vertex="1" parent="1">
          <mxGeometry x="70" y="295" width="60" height="30" as="geometry" />
        </mxCell>
        <mxCell id="DrUwkYx7hOjL73dzt_0N-31" value="&lt;b&gt;&lt;font color=&quot;#330066&quot;&gt;Weight Matrix&lt;/font&gt;&lt;/b&gt;" style="text;html=1;align=center;verticalAlign=middle;whiteSpace=wrap;rounded=0;" vertex="1" parent="1">
          <mxGeometry x="330" y="240" width="70" height="30" as="geometry" />
        </mxCell>
        <mxCell id="DrUwkYx7hOjL73dzt_0N-32" value="" style="whiteSpace=wrap;html=1;aspect=fixed;fillColor=#A9C4EB;" vertex="1" parent="1">
          <mxGeometry x="154" y="450" width="40" height="40" as="geometry" />
        </mxCell>
        <mxCell id="DrUwkYx7hOjL73dzt_0N-33" value="" style="whiteSpace=wrap;html=1;aspect=fixed;fillColor=#003300;" vertex="1" parent="1">
          <mxGeometry x="194" y="450" width="40" height="40" as="geometry" />
        </mxCell>
        <mxCell id="DrUwkYx7hOjL73dzt_0N-34" value="" style="whiteSpace=wrap;html=1;aspect=fixed;fillColor=#003300;" vertex="1" parent="1">
          <mxGeometry x="234" y="450" width="40" height="40" as="geometry" />
        </mxCell>
        <mxCell id="DrUwkYx7hOjL73dzt_0N-35" value="" style="whiteSpace=wrap;html=1;aspect=fixed;fillColor=#003300;" vertex="1" parent="1">
          <mxGeometry x="274" y="450" width="40" height="40" as="geometry" />
        </mxCell>
        <mxCell id="DrUwkYx7hOjL73dzt_0N-36" value="&lt;font color=&quot;#ff0000&quot;&gt;it&#39;s&lt;/font&gt;" style="text;html=1;align=center;verticalAlign=middle;whiteSpace=wrap;rounded=0;" vertex="1" parent="1">
          <mxGeometry x="144" y="420" width="60" height="30" as="geometry" />
        </mxCell>
        <mxCell id="DrUwkYx7hOjL73dzt_0N-37" value="&lt;font color=&quot;#cc6600&quot;&gt;it&#39;s&lt;/font&gt;" style="text;html=1;align=center;verticalAlign=middle;whiteSpace=wrap;rounded=0;" vertex="1" parent="1">
          <mxGeometry x="84" y="460" width="60" height="30" as="geometry" />
        </mxCell>
        <mxCell id="DrUwkYx7hOjL73dzt_0N-38" value="&lt;font color=&quot;#ff0000&quot;&gt;tea&lt;/font&gt;" style="text;html=1;align=center;verticalAlign=middle;whiteSpace=wrap;rounded=0;" vertex="1" parent="1">
          <mxGeometry x="264" y="420" width="60" height="30" as="geometry" />
        </mxCell>
        <mxCell id="DrUwkYx7hOjL73dzt_0N-39" value="&lt;font color=&quot;#ff0000&quot;&gt;for&lt;/font&gt;" style="text;html=1;align=center;verticalAlign=middle;whiteSpace=wrap;rounded=0;" vertex="1" parent="1">
          <mxGeometry x="224" y="420" width="60" height="30" as="geometry" />
        </mxCell>
        <mxCell id="DrUwkYx7hOjL73dzt_0N-40" value="&lt;font color=&quot;#ff0000&quot;&gt;time&lt;/font&gt;" style="text;html=1;align=center;verticalAlign=middle;whiteSpace=wrap;rounded=0;" vertex="1" parent="1">
          <mxGeometry x="184" y="420" width="60" height="30" as="geometry" />
        </mxCell>
        <mxCell id="DrUwkYx7hOjL73dzt_0N-41" value="" style="whiteSpace=wrap;html=1;aspect=fixed;fillColor=#003300;" vertex="1" parent="1">
          <mxGeometry x="154" y="490" width="40" height="40" as="geometry" />
        </mxCell>
        <mxCell id="DrUwkYx7hOjL73dzt_0N-42" value="" style="whiteSpace=wrap;html=1;aspect=fixed;fillColor=#A9C4EB;" vertex="1" parent="1">
          <mxGeometry x="194" y="490" width="40" height="40" as="geometry" />
        </mxCell>
        <mxCell id="DrUwkYx7hOjL73dzt_0N-43" value="" style="whiteSpace=wrap;html=1;aspect=fixed;fillColor=#003300;" vertex="1" parent="1">
          <mxGeometry x="234" y="490" width="40" height="40" as="geometry" />
        </mxCell>
        <mxCell id="DrUwkYx7hOjL73dzt_0N-44" value="" style="whiteSpace=wrap;html=1;aspect=fixed;fillColor=#003300;" vertex="1" parent="1">
          <mxGeometry x="274" y="490" width="40" height="40" as="geometry" />
        </mxCell>
        <mxCell id="DrUwkYx7hOjL73dzt_0N-45" value="" style="whiteSpace=wrap;html=1;aspect=fixed;fillColor=#003300;" vertex="1" parent="1">
          <mxGeometry x="154" y="530" width="40" height="40" as="geometry" />
        </mxCell>
        <mxCell id="DrUwkYx7hOjL73dzt_0N-46" value="" style="whiteSpace=wrap;html=1;aspect=fixed;fillColor=#003300;" vertex="1" parent="1">
          <mxGeometry x="194" y="530" width="40" height="40" as="geometry" />
        </mxCell>
        <mxCell id="DrUwkYx7hOjL73dzt_0N-47" value="" style="whiteSpace=wrap;html=1;aspect=fixed;fillColor=#A9C4EB;" vertex="1" parent="1">
          <mxGeometry x="234" y="530" width="40" height="40" as="geometry" />
        </mxCell>
        <mxCell id="DrUwkYx7hOjL73dzt_0N-48" value="" style="whiteSpace=wrap;html=1;aspect=fixed;fillColor=#003300;" vertex="1" parent="1">
          <mxGeometry x="274" y="530" width="40" height="40" as="geometry" />
        </mxCell>
        <mxCell id="DrUwkYx7hOjL73dzt_0N-49" value="" style="whiteSpace=wrap;html=1;aspect=fixed;fillColor=#003300;" vertex="1" parent="1">
          <mxGeometry x="154" y="570" width="40" height="40" as="geometry" />
        </mxCell>
        <mxCell id="DrUwkYx7hOjL73dzt_0N-50" value="" style="whiteSpace=wrap;html=1;aspect=fixed;fillColor=#003300;" vertex="1" parent="1">
          <mxGeometry x="194" y="570" width="40" height="40" as="geometry" />
        </mxCell>
        <mxCell id="DrUwkYx7hOjL73dzt_0N-51" value="" style="whiteSpace=wrap;html=1;aspect=fixed;fillColor=#003300;" vertex="1" parent="1">
          <mxGeometry x="234" y="570" width="40" height="40" as="geometry" />
        </mxCell>
        <mxCell id="DrUwkYx7hOjL73dzt_0N-52" value="" style="whiteSpace=wrap;html=1;aspect=fixed;fillColor=#A9C4EB;" vertex="1" parent="1">
          <mxGeometry x="274" y="570" width="40" height="40" as="geometry" />
        </mxCell>
        <mxCell id="DrUwkYx7hOjL73dzt_0N-53" value="&lt;font color=&quot;#cc6600&quot;&gt;time&lt;/font&gt;" style="text;html=1;align=center;verticalAlign=middle;whiteSpace=wrap;rounded=0;" vertex="1" parent="1">
          <mxGeometry x="84" y="495" width="60" height="30" as="geometry" />
        </mxCell>
        <mxCell id="DrUwkYx7hOjL73dzt_0N-54" value="&lt;font color=&quot;#cc6600&quot;&gt;for&lt;/font&gt;" style="text;html=1;align=center;verticalAlign=middle;whiteSpace=wrap;rounded=0;" vertex="1" parent="1">
          <mxGeometry x="84" y="535" width="60" height="30" as="geometry" />
        </mxCell>
        <mxCell id="DrUwkYx7hOjL73dzt_0N-55" value="&lt;font color=&quot;#cc6600&quot;&gt;tea&lt;/font&gt;" style="text;html=1;align=center;verticalAlign=middle;whiteSpace=wrap;rounded=0;" vertex="1" parent="1">
          <mxGeometry x="84" y="575" width="60" height="30" as="geometry" />
        </mxCell>
        <mxCell id="DrUwkYx7hOjL73dzt_0N-56" value="&lt;b&gt;&lt;font color=&quot;#330066&quot;&gt;Weight Matrix&lt;/font&gt;&lt;/b&gt;" style="text;html=1;align=center;verticalAlign=middle;whiteSpace=wrap;rounded=0;" vertex="1" parent="1">
          <mxGeometry x="344" y="520" width="70" height="30" as="geometry" />
        </mxCell>
        <mxCell id="DrUwkYx7hOjL73dzt_0N-81" value="" style="whiteSpace=wrap;html=1;aspect=fixed;fillColor=#A9C4EB;" vertex="1" parent="1">
          <mxGeometry x="145" y="710" width="40" height="40" as="geometry" />
        </mxCell>
        <mxCell id="DrUwkYx7hOjL73dzt_0N-85" value="&lt;font color=&quot;#ff0000&quot;&gt;it&#39;s&lt;/font&gt;" style="text;html=1;align=center;verticalAlign=middle;whiteSpace=wrap;rounded=0;" vertex="1" parent="1">
          <mxGeometry x="135" y="680" width="60" height="30" as="geometry" />
        </mxCell>
        <mxCell id="DrUwkYx7hOjL73dzt_0N-86" value="&lt;font color=&quot;#cc6600&quot;&gt;it&#39;s&lt;/font&gt;" style="text;html=1;align=center;verticalAlign=middle;whiteSpace=wrap;rounded=0;" vertex="1" parent="1">
          <mxGeometry x="75" y="720" width="60" height="30" as="geometry" />
        </mxCell>
        <mxCell id="DrUwkYx7hOjL73dzt_0N-87" value="&lt;font color=&quot;#ff0000&quot;&gt;tea&lt;/font&gt;" style="text;html=1;align=center;verticalAlign=middle;whiteSpace=wrap;rounded=0;" vertex="1" parent="1">
          <mxGeometry x="255" y="680" width="60" height="30" as="geometry" />
        </mxCell>
        <mxCell id="DrUwkYx7hOjL73dzt_0N-88" value="&lt;font color=&quot;#ff0000&quot;&gt;for&lt;/font&gt;" style="text;html=1;align=center;verticalAlign=middle;whiteSpace=wrap;rounded=0;" vertex="1" parent="1">
          <mxGeometry x="215" y="680" width="60" height="30" as="geometry" />
        </mxCell>
        <mxCell id="DrUwkYx7hOjL73dzt_0N-89" value="&lt;font color=&quot;#ff0000&quot;&gt;time&lt;/font&gt;" style="text;html=1;align=center;verticalAlign=middle;whiteSpace=wrap;rounded=0;" vertex="1" parent="1">
          <mxGeometry x="175" y="680" width="60" height="30" as="geometry" />
        </mxCell>
        <mxCell id="DrUwkYx7hOjL73dzt_0N-90" value="" style="whiteSpace=wrap;html=1;aspect=fixed;fillColor=#003300;" vertex="1" parent="1">
          <mxGeometry x="145" y="750" width="40" height="40" as="geometry" />
        </mxCell>
        <mxCell id="DrUwkYx7hOjL73dzt_0N-91" value="" style="whiteSpace=wrap;html=1;aspect=fixed;fillColor=#A9C4EB;" vertex="1" parent="1">
          <mxGeometry x="185" y="750" width="40" height="40" as="geometry" />
        </mxCell>
        <mxCell id="DrUwkYx7hOjL73dzt_0N-94" value="" style="whiteSpace=wrap;html=1;aspect=fixed;fillColor=#003300;" vertex="1" parent="1">
          <mxGeometry x="145" y="790" width="40" height="40" as="geometry" />
        </mxCell>
        <mxCell id="DrUwkYx7hOjL73dzt_0N-95" value="" style="whiteSpace=wrap;html=1;aspect=fixed;fillColor=#003300;" vertex="1" parent="1">
          <mxGeometry x="185" y="790" width="40" height="40" as="geometry" />
        </mxCell>
        <mxCell id="DrUwkYx7hOjL73dzt_0N-96" value="" style="whiteSpace=wrap;html=1;aspect=fixed;fillColor=#A9C4EB;" vertex="1" parent="1">
          <mxGeometry x="225" y="790" width="40" height="40" as="geometry" />
        </mxCell>
        <mxCell id="DrUwkYx7hOjL73dzt_0N-98" value="" style="whiteSpace=wrap;html=1;aspect=fixed;fillColor=#003300;" vertex="1" parent="1">
          <mxGeometry x="145" y="830" width="40" height="40" as="geometry" />
        </mxCell>
        <mxCell id="DrUwkYx7hOjL73dzt_0N-99" value="" style="whiteSpace=wrap;html=1;aspect=fixed;fillColor=#003300;" vertex="1" parent="1">
          <mxGeometry x="185" y="830" width="40" height="40" as="geometry" />
        </mxCell>
        <mxCell id="DrUwkYx7hOjL73dzt_0N-100" value="" style="whiteSpace=wrap;html=1;aspect=fixed;fillColor=#003300;" vertex="1" parent="1">
          <mxGeometry x="225" y="830" width="40" height="40" as="geometry" />
        </mxCell>
        <mxCell id="DrUwkYx7hOjL73dzt_0N-101" value="" style="whiteSpace=wrap;html=1;aspect=fixed;fillColor=#A9C4EB;" vertex="1" parent="1">
          <mxGeometry x="265" y="830" width="40" height="40" as="geometry" />
        </mxCell>
        <mxCell id="DrUwkYx7hOjL73dzt_0N-102" value="&lt;font color=&quot;#cc6600&quot;&gt;time&lt;/font&gt;" style="text;html=1;align=center;verticalAlign=middle;whiteSpace=wrap;rounded=0;" vertex="1" parent="1">
          <mxGeometry x="75" y="755" width="60" height="30" as="geometry" />
        </mxCell>
        <mxCell id="DrUwkYx7hOjL73dzt_0N-103" value="&lt;font color=&quot;#cc6600&quot;&gt;for&lt;/font&gt;" style="text;html=1;align=center;verticalAlign=middle;whiteSpace=wrap;rounded=0;" vertex="1" parent="1">
          <mxGeometry x="75" y="795" width="60" height="30" as="geometry" />
        </mxCell>
        <mxCell id="DrUwkYx7hOjL73dzt_0N-104" value="&lt;font color=&quot;#cc6600&quot;&gt;tea&lt;/font&gt;" style="text;html=1;align=center;verticalAlign=middle;whiteSpace=wrap;rounded=0;" vertex="1" parent="1">
          <mxGeometry x="75" y="835" width="60" height="30" as="geometry" />
        </mxCell>
        <mxCell id="DrUwkYx7hOjL73dzt_0N-105" value="&lt;b&gt;&lt;font color=&quot;#330066&quot;&gt;Weight Matrix&lt;/font&gt;&lt;/b&gt;" style="text;html=1;align=center;verticalAlign=middle;whiteSpace=wrap;rounded=0;" vertex="1" parent="1">
          <mxGeometry x="335" y="780" width="70" height="30" as="geometry" />
        </mxCell>
      </root>
    </mxGraphModel>
  </diagram>
</mxfile>
